<?xml version="1.0" standalone="no"?>
<!DOCTYPE svg PUBLIC "-//W3C//DTD SVG 20010904//EN"
 "http://www.w3.org/TR/2001/REC-SVG-20010904/DTD/svg10.dtd">
<svg version="1.0" xmlns="http://www.w3.org/2000/svg"
 width="685.000000pt" height="479.000000pt" viewBox="0 0 685.000000 479.000000"
 preserveAspectRatio="xMidYMid meet">

<g transform="translate(0.000000,479.000000) scale(0.100000,-0.100000)"
fill="#000000" stroke="none">
<path d="M3040 4669 c-63 -39 -155 -97 -205 -129 -94 -60 -220 -140 -390 -245
-55 -35 -140 -88 -189 -119 -49 -31 -93 -56 -98 -56 -4 0 -8 74 -8 165 l0 165
-215 0 -215 0 0 -302 0 -303 -78 -50 c-42 -27 -192 -121 -332 -209 -140 -87
-258 -164 -263 -170 -4 -6 -6 -42 -5 -80 4 -103 12 -104 149 -19 63 39 117 69
121 67 10 -7 10 -2005 0 -2020 -4 -5 -54 -18 -112 -28 -127 -22 -277 -58 -345
-83 -37 -14 -50 -24 -50 -38 0 -20 21 -20 2620 -20 2277 0 2620 2 2620 14 0
62 -407 146 -945 197 -117 11 -121 12 -108 39 l11 25 199 0 198 0 0 910 c0
802 -2 910 -15 910 -10 0 -15 -11 -15 -35 l0 -35 -318 0 -317 0 -51 -65 c-39
-49 -56 -82 -73 -142 -57 -197 -86 -278 -103 -281 -21 -4 -50 50 -67 125 -22
92 -26 92 -108 12 -40 -40 -73 -75 -73 -78 0 -3 162 -154 360 -336 366 -334
408 -380 436 -471 34 -114 9 -285 -56 -378 -92 -133 -208 -196 -365 -196 -158
0 -246 47 -378 202 -50 59 -92 106 -94 104 -3 -2 -5 -48 -12 -218 -1 -16 -30
-17 -426 -11 l-424 6 -90 -86 c-67 -64 -104 -90 -145 -106 -166 -62 -343 -19
-460 111 l-51 57 -230 -14 c-221 -14 -634 -49 -722 -61 l-43 -6 0 686 0 686
650 0 650 0 0 -287 0 -287 85 89 85 90 0 215 0 215 -90 31 c-50 18 -90 28 -90
23 0 -5 -269 -9 -635 -9 l-635 0 0 175 0 175 485 0 c387 0 487 3 491 13 2 7
-2 40 -9 72 l-14 60 -504 5 -504 5 -3 90 -3 90 343 214 c189 117 462 288 608
379 146 91 317 198 380 237 63 40 163 102 222 139 96 60 110 66 130 55 13 -6
97 -55 188 -109 91 -53 237 -139 325 -190 88 -51 197 -115 241 -142 45 -26 85
-48 88 -48 4 0 5 41 4 92 l-3 91 -195 115 c-107 63 -276 162 -375 220 -99 57
-201 118 -226 133 -25 16 -57 29 -70 29 -13 0 -76 -32 -139 -71z"/>
<path d="M4209 4257 c-20 -13 -39 -37 -46 -57 -13 -41 -16 -897 -3 -905 5 -3
84 74 176 170 92 96 182 181 200 190 40 19 97 19 132 1 32 -17 135 -121 151
-153 18 -35 13 -104 -9 -141 -11 -18 -20 -37 -20 -42 0 -7 108 -9 303 -8 l302
3 3 436 2 436 -23 34 c-12 18 -34 39 -47 46 -19 10 -151 13 -556 13 l-531 0
-34 -23z m229 -269 c8 -8 12 -59 12 -163 0 -104 -4 -155 -12 -163 -20 -20 -56
-14 -74 13 -14 22 -16 44 -9 163 4 75 11 143 17 150 13 15 50 16 66 0z"/>
<path d="M3065 3935 c-5 -1 -38 -11 -72 -20 -35 -10 -63 -21 -63 -25 0 -4 26
-31 58 -61 31 -29 117 -111 190 -182 l133 -128 -106 -115 c-59 -62 -112 -114
-119 -114 -6 0 -33 17 -61 38 -27 21 -117 89 -200 152 l-150 114 -13 -55 c-31
-129 6 -300 89 -419 94 -134 236 -205 434 -217 l100 -6 45 -46 c25 -25 81 -84
124 -130 l78 -84 179 180 180 180 -95 84 c-53 46 -101 96 -107 111 -8 19 -8
60 -1 146 12 144 3 210 -42 308 -61 131 -195 240 -342 278 -53 14 -207 21
-239 11z"/>
<path d="M4365 3318 c-122 -123 -359 -364 -527 -537 l-306 -313 -35 26 c-53
41 -89 50 -129 33 -37 -15 -108 -94 -108 -119 0 -8 35 -46 77 -84 43 -38 129
-117 191 -176 63 -60 120 -108 127 -108 7 0 33 22 59 50 66 70 63 120 -14 208
-23 25 -39 49 -38 53 2 5 176 184 387 399 303 308 403 404 473 452 70 48 97
74 132 127 74 113 73 104 18 161 -27 27 -57 50 -67 50 -12 0 -106 -87 -240
-222z"/>
<path d="M1752 3058 c-15 -15 -16 -70 0 -86 14 -14 57 -16 76 -3 9 5 12 24 10
52 -3 42 -4 44 -38 47 -19 2 -41 -3 -48 -10z"/>
<path d="M1972 3058 c-18 -18 -16 -85 4 -92 27 -10 61 -7 73 8 7 8 11 32 9 53
-3 36 -5 38 -38 41 -19 2 -41 -3 -48 -10z"/>
<path d="M3976 2541 l-168 -169 35 -51 c20 -28 39 -66 43 -83 3 -18 25 -54 48
-79 473 -533 516 -577 573 -605 141 -69 330 -14 407 119 29 50 50 157 42 211
-16 96 -40 129 -225 299 -97 89 -212 196 -256 237 -152 144 -315 290 -323 290
-4 0 -83 -76 -176 -169z m712 -551 c45 -28 72 -76 72 -130 0 -141 -168 -190
-256 -75 -35 46 -39 120 -8 162 45 60 132 80 192 43z"/>
<path d="M2119 2555 c-70 -17 -122 -46 -177 -99 -59 -55 -88 -108 -108 -191
-32 -138 3 -264 100 -361 72 -71 131 -102 226 -117 181 -28 342 60 423 231 29
61 32 75 31 162 0 81 -4 103 -27 153 -38 84 -134 177 -212 206 -75 29 -182 35
-256 16z m277 -127 c48 -38 74 -70 102 -128 22 -46 27 -68 26 -130 -1 -85 -23
-144 -73 -197 -35 -38 -51 -42 -51 -13 0 11 6 20 13 20 6 0 25 32 41 70 25 61
28 80 24 138 -3 40 -13 84 -26 108 -20 40 -93 114 -112 114 -6 0 -10 9 -10 20
0 27 30 26 66 -2z"/>
<path d="M50 416 l0 -366 65 0 65 0 0 64 c0 34 3 91 6 125 l7 61 77 0 c180 0
271 81 272 243 0 83 -16 129 -58 169 -55 51 -95 61 -271 66 l-163 4 0 -366z
m296 249 c56 -23 78 -99 53 -188 -15 -56 -55 -77 -146 -77 l-73 0 0 133 c0 74
3 137 7 140 12 13 123 7 159 -8z"/>
<path d="M1800 414 l0 -366 168 4 c160 3 169 4 225 31 44 22 62 38 78 69 42
83 33 211 -19 261 -44 42 -99 59 -212 66 l-105 6 0 90 0 90 150 5 150 5 3 53
3 52 -220 0 -221 0 0 -366z m307 -43 c53 -25 71 -73 53 -139 -16 -62 -53 -82
-152 -82 l-78 0 0 43 c0 24 3 78 6 120 l7 77 61 0 c38 0 77 -8 103 -19z"/>
<path d="M3470 725 l0 -55 90 0 90 0 0 -310 0 -310 70 0 70 0 0 310 0 309 88
3 87 3 3 53 3 52 -250 0 -251 0 0 -55z"/>
<path d="M722 544 c-86 -44 -129 -143 -120 -276 14 -182 148 -266 336 -209
l71 21 -10 30 c-16 45 -29 51 -74 35 -101 -36 -181 1 -187 87 l-3 33 145 5
145 5 -1 66 c-1 87 -26 152 -72 187 -31 23 -46 27 -116 30 -60 2 -89 -2 -114
-14z m160 -95 c11 -14 22 -44 25 -67 l6 -42 -92 0 c-85 0 -91 1 -91 20 0 30
28 93 48 108 27 21 82 11 104 -19z"/>
<path d="M1127 553 c-4 -3 -7 -118 -7 -255 l0 -248 66 0 66 0 -4 180 c-2 99
-3 180 -3 180 1 0 31 -58 65 -130 60 -122 66 -130 92 -130 27 0 33 9 94 132
l66 133 -7 -156 c-3 -86 -3 -168 1 -182 6 -25 10 -27 65 -27 l59 0 0 255 0
255 -52 0 c-91 0 -90 1 -161 -148 l-64 -137 -19 45 c-33 82 -106 225 -117 232
-15 10 -131 10 -140 1z"/>
<path d="M3198 553 l-138 -4 0 -39 0 -40 65 0 65 0 0 -210 0 -210 65 0 65 0 0
210 0 210 66 0 65 0 -3 43 -3 42 -55 1 c-30 0 -117 -1 -192 -3z"/>
<path d="M4066 545 c-92 -33 -131 -109 -131 -255 0 -79 4 -102 22 -137 44 -81
139 -123 245 -109 48 7 128 33 128 43 0 4 -30 65 -35 71 -1 1 -19 -5 -41 -14
-87 -37 -178 1 -191 79 l-6 36 144 3 144 3 -1 77 c-2 99 -28 158 -88 193 -49
29 -126 33 -190 10z m129 -88 c20 -17 28 -35 32 -70 l6 -47 -87 0 c-84 0 -86
1 -86 24 0 41 21 86 49 101 37 20 56 18 86 -8z"/>
<path d="M6485 544 c-27 -9 -54 -19 -58 -24 -7 -6 12 -58 27 -77 1 -1 20 4 41
12 99 35 175 5 175 -69 l0 -34 -67 -7 c-156 -15 -213 -57 -213 -157 0 -64 28
-109 82 -132 56 -23 120 -16 172 19 l36 24 0 -24 c0 -24 3 -25 61 -25 l61 0
-4 198 c-3 216 -9 240 -71 286 -37 28 -168 33 -242 10z m169 -260 c12 -5 16
-21 16 -70 0 -54 -3 -65 -22 -78 -30 -22 -91 -21 -110 2 -41 47 -22 124 34
141 41 11 62 13 82 5z"/>
<path d="M2390 300 l0 -250 108 0 c184 0 269 36 293 123 33 124 -51 207 -208
207 l-63 0 0 85 0 85 -65 0 -65 0 0 -250z m254 -21 c21 -16 26 -29 26 -64 0
-58 -32 -85 -101 -85 l-49 0 0 85 0 85 49 0 c34 0 56 -6 75 -21z"/>
<path d="M2870 300 l0 -251 63 3 62 3 3 248 2 247 -65 0 -65 0 0 -250z"/>
<path d="M4400 543 c0 -5 31 -59 70 -122 38 -63 68 -117 66 -120 -120 -192
-146 -236 -146 -243 0 -4 29 -8 64 -8 l64 0 39 68 c22 37 42 76 47 87 6 17 16
6 58 -68 l51 -87 68 0 c38 0 69 2 69 4 0 3 -26 47 -59 98 -32 51 -66 108 -75
126 l-17 33 54 93 c30 51 62 105 72 120 l17 26 -68 0 -69 0 -40 -75 c-22 -41
-42 -75 -45 -75 -3 0 -23 34 -45 75 l-40 75 -67 0 c-38 0 -68 -3 -68 -7z"/>
<path d="M4912 303 l3 -248 63 -3 62 -3 0 105 c0 58 4 107 9 111 5 3 41 2 80
-1 l71 -7 0 -103 0 -104 60 0 60 0 0 143 c0 79 3 192 7 250 l6 107 -66 0 -67
0 0 -100 0 -100 -80 0 -80 0 0 100 0 100 -65 0 -65 0 2 -247z"/>
<path d="M5420 300 l0 -250 58 0 57 0 79 152 c43 84 83 157 87 162 5 6 9 -61
9 -152 l0 -163 58 3 57 3 3 248 2 247 -57 0 c-67 0 -51 19 -166 -205 l-62
-120 -3 163 -2 162 -60 0 -60 0 0 -250z"/>
<path d="M5920 300 l0 -250 59 0 58 0 7 38 c3 20 6 70 6 110 0 64 2 73 17 70
10 -2 46 -51 82 -111 l64 -107 68 0 c38 0 69 4 69 8 0 5 -36 64 -81 132 l-81
124 81 118 81 119 -72 -3 -71 -3 -63 -100 c-76 -120 -99 -130 -95 -43 1 31 -1
77 -4 102 l-7 46 -59 0 -59 0 0 -250z"/>
</g>
</svg>
